IKResults
version=1
nRows=11
nColumns=40
inDegrees=yes

Units are S.I. units (second, meters, Newtons, ...)
Angles are in degrees.

endheader
time	pelvis_tilt	pelvis_list	pelvis_rotation	pelvis_tx	pelvis_ty	pelvis_tz	hip_flexion_r	hip_adduction_r	hip_rotation_r	knee_angle_r	knee_angle_r_beta	ankle_angle_r	subtalar_angle_r	mtp_angle_r	hip_flexion_l	hip_adduction_l	hip_rotation_l	knee_angle_l	knee_angle_l_beta	ankle_angle_l	subtalar_angle_l	mtp_angle_l	lumbar_extension	lumbar_bending	lumbar_rotation	arm_flex_r	arm_add_r	arm_rot_r	elbow_flex_r	pro_sup_r	wrist_flex_r	wrist_dev_r	arm_flex_l	arm_add_l	arm_rot_l	elbow_flex_l	pro_sup_l	wrist_flex_l	wrist_dev_l
      0.00000000	     19.19558714	     -1.62980894	      2.51121122	     -0.99016393	      0.95055890	      0.95002500	      1.24572790	     -2.36862435	    -12.13668176	    -44.91631130	     -0.78393752	      4.21947293	    -16.21733561	     17.68882867	    -23.03456421	      0.24734054	     12.31339385	    -11.58796940	     -0.20224822	     11.05372106	     -0.46459898	     -6.08938415	    -24.45129394	      1.09693765	     -1.49055416	    -10.16518564	    -10.05418353	      1.16445934	     22.34962560	     89.95437384	      0.00000000	      0.00000000	      7.09490673	     11.21861883	      2.46859608	     28.01222706	     89.95437384	      0.00000000	      0.00000000
      0.01000000	     19.14229423	     -1.67834330	      2.82617631	     -0.98097677	      0.94971937	      0.94996004	      1.64457181	     -2.41511916	    -13.03073501	    -42.23340952	     -0.73711205	      4.37201107	    -16.26654576	     17.77186231	    -23.73995755	      0.42388600	     12.11757256	    -11.25961298	     -0.19651732	     11.40088886	     -0.65927592	     -6.18070165	    -24.45907004	      1.35261644	     -1.79164247	    -10.47667726	    -10.03561419	      0.76427670	     21.83232692	     89.95437384	      0.00000000	      0.00000000	      7.87913687	     11.34424426	      2.46526702	     29.28660829	     89.95437384	      0.00000000	      0.00000000
      0.02000000	     18.92348854	     -1.68012857	      3.08130002	     -0.97188856	      0.94849066	      0.95003366	      2.20858499	     -2.53725725	    -13.97328215	    -39.52072924	     -0.68976685	      4.42580705	    -15.88447442	     17.63821984	    -24.13855272	      0.54406931	     11.93538855	    -11.18466683	     -0.19520926	     11.82539858	     -0.67317893	     -6.22035299	    -24.30748994	      1.52271808	     -2.04669067	    -10.81214081	    -10.01631683	      0.33046701	     21.42982782	     89.95437384	      0.00000000	      0.00000000	      8.63167841	     11.47251490	      2.42188069	     30.60971072	     89.95437384	      0.00000000	      0.00000000
      0.03000000	     18.60492531	     -1.65696646	      3.23329136	     -0.96294543	      0.94704592	      0.95027800	      2.84563480	     -2.71530206	    -14.98172363	    -36.72717624	     -0.64101015	      4.33016962	    -15.31289678	     17.43908111	    -24.37792781	      0.60035392	     11.72314535	    -11.21309221	     -0.19570538	     12.31285892	     -0.66846217	     -6.27548534	    -24.08530746	      1.62818198	     -2.18820422	    -11.11720477	    -10.01467016	     -0.06590326	     21.04023973	     89.95437384	      0.00000000	      0.00000000	      9.36180621	     11.61412745	      2.30651654	     31.99610131	     89.95437384	      0.00000000	      0.00000000
      0.04000000	     18.39543891	     -1.76003947	      3.44085183	     -0.95377910	      0.94573119	      0.95061905	      3.19547359	     -2.72143477	    -16.18742222	    -33.70091440	     -0.58819192	      4.16885294	    -14.29490907	     16.95537879	    -24.73971541	      0.82322953	     11.52839042	    -11.24530192	     -0.19626754	     12.69126302	     -0.47954614	     -6.32385201	    -23.95336579	      1.88365339	     -2.30452930	    -11.47392742	    -10.00730343	     -0.52703691	     20.81400425	     89.95437384	      0.00000000	      0.00000000	     10.08067455	     11.71624951	      2.19471005	     33.38197102	     89.95437384	      0.00000000	      0.00000000
      0.05000000	     17.53270567	     -1.42099680	      3.11020635	     -0.94503070	      0.94319767	      0.95123074	      4.70280789	     -3.34069405	    -17.01936931	    -31.44770959	     -0.54886607	      4.16581403	    -13.63765680	     16.54203848	    -24.29430231	      0.33493484	     11.72673087	    -11.50086142	     -0.20072790	     13.08169810	     -0.46891031	     -6.22994803	    -23.19227256	      1.50746167	     -2.06671456	    -11.88214107	    -10.10998789	     -0.54487017	     20.67261330	     89.95437384	      0.00000000	      0.00000000	     10.89760823	     11.68577368	      2.21230617	     34.49894139	     89.95437384	      0.00000000	      0.00000000
      0.06000000	     17.89412821	     -1.83274704	      3.86995671	     -0.93532943	      0.94277784	      0.95134901	      3.74735797	     -2.87492541	    -19.05135818	    -27.41434377	     -0.47847056	      3.92624436	    -10.69625821	     15.35941162	    -25.30545422	      1.12626765	     10.92274548	    -11.46335880	     -0.20007335	     13.53033873	      0.01279479	     -6.40755837	    -23.62183859	      2.26600659	     -2.55717808	    -12.09594560	    -10.01944075	     -1.31985590	     20.36036302	     89.95437384	      0.00000000	      0.00000000	     11.41297272	     11.90193991	      1.94135669	     36.17890990	     89.95437384	      0.00000000	      0.00000000
      0.07000000	     17.65149992	     -1.96546722	      4.10455201	     -0.92598687	      0.94126386	      0.95184818	      3.96481987	     -2.80853705	    -20.69312381	    -24.40828007	     -0.42600485	      3.82685674	     -8.23112971	     14.05415059	    -25.57653004	      1.39074121	     10.58052955	    -11.63768916	     -0.20311599	     14.03267588	      0.44644334	     -6.51749279	    -23.45369322	      2.55753647	     -2.65499331	    -12.30641982	    -10.02119926	     -1.66636862	     20.05646773	     89.95437384	      0.00000000	      0.00000000	     12.04693980	     11.95943927	      1.85306455	     37.54171909	     89.95437384	      0.00000000	      0.00000000
      0.08000000	     17.07749195	     -1.96957076	      3.86309918	     -0.91716686	      0.93922558	      0.95300859	      4.76010735	     -2.75368140	    -21.33606867	    -21.75651415	     -0.37972281	      3.48932155	     -5.96484053	     13.29776338	    -25.45882111	      1.32308609	     10.53355362	    -11.86782921	     -0.20713269	     14.54234891	      0.69346305	     -6.52343064	    -23.02499577	      2.53172920	     -2.45043065	    -12.45392424	    -10.06964458	     -1.70871286	     19.87899538	     89.95437384	      0.00000000	      0.00000000	     12.66049274	     12.02572493	      1.78805057	     38.85520396	     89.95437384	      0.00000000	      0.00000000
      0.09000000	     17.22304174	     -2.07339326	      4.36120266	     -0.90712915	      0.93798960	      0.95314797	      4.59237327	     -3.11660789	    -25.18460559	    -19.45441860	     -0.33954366	      1.93809134	     -1.37207457	     -4.45228351	    -26.28626247	      1.63261073	      9.66563906	    -11.80769272	     -0.20608311	     14.89867265	      1.85151935	     -7.64099167	    -23.20209080	      2.91023832	     -2.77057850	    -12.74369532	    -10.09810027	     -2.01892635	     19.80052800	     89.95437384	      0.00000000	      0.00000000	     13.13195846	     12.10157171	      1.73307159	     40.33297686	     89.95437384	      0.00000000	      0.00000000
      0.10000000	     16.68966148	     -2.29302018	      4.22540114	     -0.89779328	      0.93592165	      0.95459333	      5.37388180	     -2.68131045	    -25.60026410	    -17.37936550	     -0.30332715	      1.86270303	      0.43655173	     -4.63662477	    -26.20021056	      1.86829375	      9.72423003	    -12.09653498	     -0.21112436	     15.40192332	      2.04325969	     -7.61922127	    -22.74459185	      3.10872458	     -2.61299023	    -12.81727089	    -10.14109971	     -2.07857874	     19.55780851	     89.95437384	      0.00000000	      0.00000000	     13.53802332	     12.21412531	      1.65422486	     41.74663490	     89.95437384	      0.00000000	      0.00000000
